<?xml version="1.0" encoding="utf-8"?>
<!-- Generator: Adobe Illustrator 23.0.1, SVG Export Plug-In . SVG Version: 6.00 Build 0)  -->
<svg version="1.1" id="Layer_1" xmlns="http://www.w3.org/2000/svg" xmlns:xlink="http://www.w3.org/1999/xlink" x="0px" y="0px"
	 viewBox="0 0 44.23 30.54" style="enable-background:new 0 0 44.23 30.54;" xml:space="preserve">
<style type="text/css">
	.st0{fill-rule:evenodd;clip-rule:evenodd;fill:#000000;}
	.st1{fill:#000000;}
</style>
<g>
	<path class="st0" d="M29.68,19.41c0,0.99-0.25,2.14-0.98,3.15h2.05V6.72h-6.56v6.47C27.74,14.29,29.68,16.56,29.68,19.41z"/>
	<path class="st1" d="M18.34,12.63c1.48,0,2.86,0.35,3.91,0.62c-2.23-0.39-5.69,0.18-7.48,1.58v7.73h6.56v-8.79
		c1.42,0.26,2.49,0.83,3.15,1.28v7.51h1.43c-1.34,1.51-3.85,2.44-6.01,2.1v0.32c0,0,0,0,0,0c6.24,0.49,8.87-2.46,8.87-5.79
		c0-3.92-3.67-6.21-7.43-6.68V6.72h-6.56v5.85c-4.24,0.85-8.4,3.38-8.4,7.56c0,6.43,8.99,10.42,16.82,10.42
		c11.89,0,21.04-5.74,21.04-13.81C44.23,6.97,31.01,0,20.64,0C8.75,0,0,7.55,0,15.62l0,0c0,4.18,2.35,7.68,5.3,10.12l0.22-0.15
		c-2.34-1.95-4.45-4.98-4.45-9.15c0.62-8.83,11.5-13.8,21.18-13.8c6.85,0,19.15,1.58,19.15,13.03c0,5.97-6.38,13.74-19.79,13.74
		c-6.86,0-12.2-3.68-12.2-8.96C9.42,15.88,13.01,12.63,18.34,12.63z"/>
</g>
</svg>
